<svg width="29" height="22" viewBox="0 0 29 22" fill="none" xmlns="http://www.w3.org/2000/svg">
<path d="M6 3L6.09435 3.25497C7.06306 5.87288 9.12712 7.93694 11.745 8.90565L12 9L11.745 9.09435C9.12712 10.0631 7.06306 12.1271 6.09435 14.745L6 15L5.90565 14.745C4.93694 12.1271 2.87288 10.0631 0.254973 9.09435L0 9L0.254973 8.90565C2.87288 7.93694 4.93694 5.87288 5.90565 3.25497L6 3Z" fill="#FFB367"/>
<path d="M1.30966 9C3.35775 8.01186 5.01186 6.35775 6 4.30966C6.98814 6.35775 8.64225 8.01186 10.6903 9C8.64225 9.98814 6.98814 11.6422 6 13.6903C5.01186 11.6422 3.35775 9.98814 1.30966 9Z" stroke="white" stroke-opacity="0.05"/>
<mask id="path-3-outside-1_3_44" maskUnits="userSpaceOnUse" x="9.43101" y="0.148865" width="19" height="22" fill="black">
<rect fill="white" x="9.43101" y="0.148865" width="19" height="22"/>
<path fill-rule="evenodd" clip-rule="evenodd" d="M19.8518 1.14886H15.4044V1.14889H10.431C10.431 3.89562 12.6577 6.12228 15.4044 6.12228C15.4103 6.12228 15.4161 6.12227 15.422 6.12225H19.8518C21.1987 6.12225 22.2906 7.21417 22.2906 8.56113C22.2906 9.90808 21.1987 11 19.8518 11H16.9519C13.4175 11 10.5524 13.8651 10.5524 17.3994V20.8511H15.5258V17.3994C15.5258 16.6118 16.1643 15.9734 16.9519 15.9734H19.8518C23.9454 15.9734 27.264 12.6548 27.264 8.56113C27.264 4.6443 24.226 1.43704 20.3778 1.16724C20.3778 1.16113 20.3778 1.15501 20.3778 1.14889H19.8731C19.866 1.14887 19.8589 1.14886 19.8518 1.14886Z"/>
</mask>
<path fill-rule="evenodd" clip-rule="evenodd" d="M19.8518 1.14886H15.4044V1.14889H10.431C10.431 3.89562 12.6577 6.12228 15.4044 6.12228C15.4103 6.12228 15.4161 6.12227 15.422 6.12225H19.8518C21.1987 6.12225 22.2906 7.21417 22.2906 8.56113C22.2906 9.90808 21.1987 11 19.8518 11H16.9519C13.4175 11 10.5524 13.8651 10.5524 17.3994V20.8511H15.5258V17.3994C15.5258 16.6118 16.1643 15.9734 16.9519 15.9734H19.8518C23.9454 15.9734 27.264 12.6548 27.264 8.56113C27.264 4.6443 24.226 1.43704 20.3778 1.16724C20.3778 1.16113 20.3778 1.15501 20.3778 1.14889H19.8731C19.866 1.14887 19.8589 1.14886 19.8518 1.14886Z" fill="#FAF9FF"/>
<path d="M15.4044 1.14886V0.148865H14.4044V1.14886H15.4044ZM15.4044 1.14889V2.14889H16.4044V1.14889H15.4044ZM10.431 1.14889V0.148895H9.43101V1.14889H10.431ZM15.422 6.12225V5.12225L15.4185 5.12226L15.422 6.12225ZM10.5524 20.8511H9.55243V21.8511H10.5524V20.8511ZM15.5258 20.8511V21.8511H16.5258V20.8511H15.5258ZM20.3778 1.16724L19.3778 1.16365L19.3744 2.09935L20.3078 2.16479L20.3778 1.16724ZM20.3778 1.14889H21.3778V0.148895H20.3778V1.14889ZM19.8731 1.14889L19.8703 2.14889H19.8731V1.14889ZM15.4044 2.14886H19.8518V0.148865H15.4044V2.14886ZM16.4044 1.14889V1.14886H14.4044V1.14889H16.4044ZM15.4044 0.148895H10.431V2.14889H15.4044V0.148895ZM9.43101 1.14889C9.43101 4.44791 12.1054 7.12228 15.4044 7.12228V5.12228C13.21 5.12228 11.431 3.34334 11.431 1.14889H9.43101ZM15.4044 7.12228C15.4114 7.12228 15.4184 7.12227 15.4255 7.12225L15.4185 5.12226C15.4138 5.12228 15.4091 5.12228 15.4044 5.12228V7.12228ZM19.8518 5.12225H15.422V7.12225H19.8518V5.12225ZM23.2906 8.56113C23.2906 6.66189 21.751 5.12225 19.8518 5.12225V7.12225C20.6464 7.12225 21.2906 7.76646 21.2906 8.56113H23.2906ZM19.8518 12C21.751 12 23.2906 10.4604 23.2906 8.56113H21.2906C21.2906 9.3558 20.6464 10 19.8518 10V12ZM16.9519 12H19.8518V10H16.9519V12ZM11.5524 17.3994C11.5524 14.4174 13.9698 12 16.9519 12V10C12.8653 10 9.55243 13.3128 9.55243 17.3994H11.5524ZM11.5524 20.8511V17.3994H9.55243V20.8511H11.5524ZM15.5258 19.8511H10.5524V21.8511H15.5258V19.8511ZM14.5258 17.3994V20.8511H16.5258V17.3994H14.5258ZM16.9519 14.9734C15.612 14.9734 14.5258 16.0596 14.5258 17.3994H16.5258C16.5258 17.1641 16.7166 16.9734 16.9519 16.9734V14.9734ZM19.8518 14.9734H16.9519V16.9734H19.8518V14.9734ZM26.264 8.56113C26.264 12.1025 23.3932 14.9734 19.8518 14.9734V16.9734C24.4977 16.9734 28.264 13.2071 28.264 8.56113H26.264ZM20.3078 2.16479C23.6359 2.39812 26.264 5.17314 26.264 8.56113H28.264C28.264 4.11545 24.8161 0.475955 20.4477 0.169688L20.3078 2.16479ZM21.3777 1.17083C21.3778 1.16357 21.3778 1.15626 21.3778 1.14889H19.3778C19.3778 1.15377 19.3778 1.15868 19.3778 1.16365L21.3777 1.17083ZM20.3778 0.148895H19.8731V2.14889H20.3778V0.148895ZM19.8518 2.14886C19.8579 2.14886 19.8641 2.14887 19.8703 2.14889L19.8759 0.148899C19.8679 0.148876 19.8598 0.148865 19.8518 0.148865V2.14886Z" fill="#4E17D1" fill-opacity="0.6" mask="url(#path-3-outside-1_3_44)"/>
</svg>
