<svg width="133" height="128" viewBox="0 0 133 128" fill="none" xmlns="http://www.w3.org/2000/svg">
<circle cx="101" cy="44" r="11" fill="white"/>
<circle cx="127.5" cy="31.5" r="5.5" fill="white"/>
<circle cx="63" cy="65" r="21" fill="white"/>
<path d="M117.84 96.3538C111.768 106.397 103.031 114.562 92.5992 119.94C82.1674 125.318 70.4492 127.701 58.7455 126.822C47.0418 125.943 35.8106 121.838 26.2989 114.962C16.7873 108.086 9.36732 98.7087 4.86288 87.8709C0.358443 77.033 -1.05422 65.1588 0.781748 53.5667C2.61771 41.9745 7.63046 31.118 15.2634 22.2025C22.8964 13.287 32.8509 6.66133 44.0218 3.0612C55.1926 -0.538943 67.1427 -0.972705 78.5451 1.80807L72.1512 28.026C65.5946 26.427 58.7231 26.6765 52.2997 28.7466C45.8762 30.8167 40.1522 34.6266 35.7631 39.7532C31.374 44.8798 28.4916 51.1225 27.4359 57.7882C26.3802 64.4539 27.1925 71.2817 29.7826 77.5137C32.3727 83.7456 36.6394 89.1378 42.1087 93.0915C47.5781 97.0453 54.0362 99.4058 60.7661 99.9111C67.4959 100.416 74.2341 99.0467 80.2326 95.9541C86.231 92.8614 91.255 88.1668 94.7467 82.3915L117.84 96.3538Z" fill="white"/>
</svg>
